<svg width="48" height="48" viewBox="0 0 48 48" fill="none" xmlns="http://www.w3.org/2000/svg">
  <path d="M34 8L22 20L10 8C5.6 12.4 5.6 19.6 10 24C14.4 28.4 21.6 28.4 26 24L37 35C38.4 36.4 40.6 36.4 42 35C43.4 33.6 43.4 31.4 42 30L32 20C36.4 15.6 36.4 8.4 32 4C27.6 -0.4 20.4 -0.4 16 4L5 15C3.6 16.4 3.6 18.6 5 20C6.4 21.4 8.6 21.4 10 20L22 8L34 20L22 32L10 20C5.6 24.4 5.6 31.6 10 36C14.4 40.4 21.6 40.4 26 36L37 25C38.4 23.6 40.6 23.6 42 25C43.4 26.4 43.4 28.6 42 30L31 41C29.6 42.4 27.4 42.4 26 41C24.6 39.6 24.6 37.4 26 36L32 30" fill="url(#paint0_linear)"/>
  <path d="M39 6L35 2" stroke="url(#paint1_linear)" stroke-width="4" stroke-linecap="round" stroke-linejoin="round"/>
  <defs>
    <linearGradient id="paint0_linear" x1="5" y1="4" x2="42" y2="41" gradientUnits="userSpaceOnUse">
      <stop stop-color="#6C5CE7"/>
      <stop offset="1" stop-color="#00A8FF"/>
    </linearGradient>
    <linearGradient id="paint1_linear" x1="35" y1="2" x2="39" y2="6" gradientUnits="userSpaceOnUse">
      <stop stop-color="#6C5CE7"/>
      <stop offset="1" stop-color="#00A8FF"/>
    </linearGradient>
  </defs>
</svg>