<svg xmlns="http://www.w3.org/2000/svg" viewBox="0 0 96 96" fill="none">
  <path d="M60 20c-11 11-22 22-33 33-4.4-4.4-4.4-11.6 0-16 4.4-4.4 11.6-4.4 16 0l11-11c-8.8-8.8-23.2-8.8-32 0-8.8 8.8-8.8 23.2 0 32l22 22c1.4 1.4 3.6 1.4 5 0 1.4-1.4 1.4-3.6 0-5L38 64 27 53 38 42l11 11 11 11-11 11c-4.4 4.4-11.6 4.4-16 0-4.4-4.4-4.4-11.6 0-16l11-11-11-11c-8.8 8.8-8.8 23.2 0 32 8.8 8.8 23.2 8.8 32 0l22-22c1.4-1.4 3.6-1.4 5 0s1.4 3.6 0 5L86 53 75 64c-1.4 1.4-1.4 3.6 0 5 1.4 1.4 3.6 1.4 5 0l11-11c4.4-4.4 4.4-11.6 0-16-4.4-4.4-11.6-4.4-16 0L64 53l-11-11 11-11c4.4-4.4 11.6-4.4 16 0 4.4 4.4 4.4 11.6 0 16" fill="url(#paint0_linear)" stroke="url(#paint0_linear)" stroke-width="1.5" stroke-linecap="round" stroke-linejoin="round"/>
  <path d="M82 18l-4-4" stroke="url(#paint1_linear)" stroke-width="4" stroke-linecap="round" stroke-linejoin="round"/>
  <text x="75" y="40" font-family="Inter, sans-serif" font-size="24" font-weight="700" fill="url(#paint0_linear)">2</text>
  <defs>
    <linearGradient id="paint0_linear" x1="16" y1="16" x2="80" y2="80" gradientUnits="userSpaceOnUse">
      <stop stop-color="#6C5CE7"/>
      <stop offset="1" stop-color="#00A8FF"/>
    </linearGradient>
    <linearGradient id="paint1_linear" x1="78" y1="14" x2="82" y2="18" gradientUnits="userSpaceOnUse">
      <stop stop-color="#6C5CE7"/>
      <stop offset="1" stop-color="#00A8FF"/>
    </linearGradient>
  </defs>
</svg>